<svg width="24" height="24" viewBox="0 0 24 24" fill="none" xmlns="http://www.w3.org/2000/svg">
<path fill-rule="evenodd" clip-rule="evenodd" d="M12.3322 21.3737C12.1427 21.5421 11.8573 21.5421 11.6678 21.3737L2.66782 13.3737C2.56831 13.2852 2.50818 13.1608 2.50078 13.0278C2.49337 12.8949 2.53929 12.7645 2.62835 12.6655L11.6284 2.66552C11.7232 2.56016 11.8583 2.5 12 2.5C12.1417 2.5 12.2768 2.56016 12.3716 2.66552L21.3716 12.6655C21.4607 12.7645 21.5066 12.8949 21.4992 13.0278C21.4918 13.1608 21.4317 13.2852 21.3322 13.3737L12.3322 21.3737ZM20.2918 12.9605L12 3.74742L3.7082 12.9605L12 20.331L20.2918 12.9605Z" fill="black"/>
<path fill-rule="evenodd" clip-rule="evenodd" d="M12.1213 2.51505C12.3892 2.58202 12.552 2.85349 12.4851 3.12139L10.5123 11.0123L12.4903 20.9021C12.5444 21.1728 12.3688 21.4363 12.0981 21.4904C11.8273 21.5446 11.5639 21.369 11.5097 21.0982L9.50971 11.0982C9.49519 11.0256 9.49697 10.9507 9.51493 10.8789L11.5149 2.87885C11.5819 2.61095 11.8534 2.44807 12.1213 2.51505Z" fill="black"/>
<path fill-rule="evenodd" clip-rule="evenodd" d="M9.86252 10.5192C9.93627 10.4982 10.0139 10.4943 10.0893 10.5081L21.0893 12.5081C21.361 12.5575 21.5412 12.8178 21.4918 13.0894C21.4424 13.3611 21.1821 13.5413 20.9104 13.4919L10.0251 11.5128L3.13725 13.4808C2.87173 13.5566 2.59498 13.4029 2.51912 13.1374C2.44326 12.8718 2.59701 12.5951 2.86252 12.5192L9.86252 10.5192Z" fill="black"/>
</svg>
